<svg id="Capa_1" data-name="Capa 1" xmlns="http://www.w3.org/2000/svg" xmlns:xlink="http://www.w3.org/1999/xlink" viewBox="0 0 96.75 101.78">
  <defs>
    <style>
      .cls-1, .cls-11 {
        fill: #231f20;
      }

      .cls-1, .cls-10, .cls-2, .cls-3, .cls-4, .cls-5, .cls-6, .cls-7, .cls-8, .cls-9 {
        fill-rule: evenodd;
      }

      .cls-2 {
        fill: url(#GradientFill_9);
      }

      .cls-3 {
        fill: url(#GradientFill_5);
      }

      .cls-4 {
        fill: url(#GradientFill_10);
      }

      .cls-5 {
        fill: url(#GradientFill_9-2);
      }

      .cls-6 {
        fill: url(#GradientFill_5-2);
      }

      .cls-7 {
        fill: url(#GradientFill_10-2);
      }

      .cls-8 {
        fill: url(#GradientFill_9-3);
      }

      .cls-9 {
        fill: url(#GradientFill_5-3);
      }

      .cls-10 {
        fill: url(#GradientFill_10-3);
      }

      .cls-11 {
        font-size: 4.44px;
        font-family: ArialRoundedMTBold, Arial Rounded MT Bold;
        letter-spacing: 0.12em;
      }

      .cls-12 {
        letter-spacing: 0.18em;
      }

      .cls-13 {
        letter-spacing: 0.2em;
      }

      .cls-14 {
        letter-spacing: 0.18em;
      }

      .cls-15 {
        letter-spacing: 0.2em;
      }
    </style>
    <linearGradient id="GradientFill_9" data-name="GradientFill 9" x1="25.21" y1="18.5" x2="23.77" y2="23.15" gradientUnits="userSpaceOnUse">
      <stop offset="0" stop-color="#00a853"/>
      <stop offset="1" stop-color="#00411f"/>
    </linearGradient>
    <linearGradient id="GradientFill_5" data-name="GradientFill 5" x1="31.01" y1="11.93" x2="50.58" y2="8.06" gradientUnits="userSpaceOnUse">
      <stop offset="0" stop-color="#00b152"/>
      <stop offset="1" stop-color="#c5e1b2"/>
    </linearGradient>
    <linearGradient id="GradientFill_10" data-name="GradientFill 10" x1="48.34" y1="1.98" x2="48.34" y2="5.33" gradientUnits="userSpaceOnUse">
      <stop offset="0" stop-color="#00a853"/>
      <stop offset="1" stop-color="#c5e1b2"/>
    </linearGradient>
    <linearGradient id="GradientFill_9-2" x1="65.82" y1="12.6" x2="62.51" y2="9.14" xlink:href="#GradientFill_9"/>
    <linearGradient id="GradientFill_5-2" x1="70.03" y1="21.29" x2="63.77" y2="40.76" xlink:href="#GradientFill_5"/>
    <linearGradient id="GradientFill_10-2" x1="68.61" y1="41.11" x2="68" y2="40.77" xlink:href="#GradientFill_10"/>
    <linearGradient id="GradientFill_9-3" x1="50.25" y1="52.58" x2="56.7" y2="51.05" xlink:href="#GradientFill_9"/>
    <linearGradient id="GradientFill_5-3" x1="42.41" y1="51.38" x2="28.78" y2="36.12" xlink:href="#GradientFill_5"/>
    <linearGradient id="GradientFill_10-3" x1="25.67" y1="40.33" x2="26.28" y2="39.98" xlink:href="#GradientFill_10"/>
  </defs>
  <path class="cls-1" d="M289.31,449.41l7.17-7.88a.56.56,0,0,1,.44-.2h5.84a.59.59,0,0,1,.55.36.6.6,0,0,1-.11.64L295.08,451l8.42,10.23a.59.59,0,0,1-.46,1h-6a.59.59,0,0,1-.46-.21l-5.3-6.35-2,2.1v3.87a.58.58,0,0,1-.59.59H284a.59.59,0,0,1-.59-.59V441.92a.6.6,0,0,1,.59-.59h4.69a.59.59,0,0,1,.59.59v7.49Zm80.93,7.45h9.36a.58.58,0,0,1,.59.59v4.24a.59.59,0,0,1-.59.59H363a.59.59,0,0,1-.59-.59v-4.6a.6.6,0,0,1,.15-.4l9.17-10H363a.58.58,0,0,1-.59-.59v-4.19a.59.59,0,0,1,.59-.59H379.6a.59.59,0,0,1,.59.59v3.69a.56.56,0,0,1-.15.39l-9.8,10.89Zm-47.83-10.79a10.81,10.81,0,1,0,0,10.81,11.59,11.59,0,0,0,19.65-.08,11,11,0,0,0,9.54,5.48,10.81,10.81,0,1,0-10.85-12.37h-7.7a.59.59,0,0,0-.6.59v3.65a.59.59,0,0,0,.6.59h3.64v.34H336a.58.58,0,0,0-.38.13,5.19,5.19,0,0,1-3.33,1.19,4.92,4.92,0,1,1,0-9.84,5.16,5.16,0,0,1,3.76,1.58.6.6,0,0,0,.44.18.55.55,0,0,0,.43-.2l3.16-3.57a.59.59,0,0,0,0-.83,11.58,11.58,0,0,0-7.87-3.05,11.45,11.45,0,0,0-9.8,5.4Zm29.19.49a4.92,4.92,0,1,1-5,4.92,5,5,0,0,1,5-4.92Zm-38.67,0a4.92,4.92,0,1,1-5,4.92A5,5,0,0,1,312.93,446.56Z" transform="translate(-283.44 -370.52)"/>
  <path class="cls-1" d="M290.3,469.44h4.82a.29.29,0,0,1,.29.29h0a.29.29,0,0,1-.29.29H290.3a.29.29,0,0,1-.29-.29h0A.29.29,0,0,1,290.3,469.44Z" transform="translate(-283.44 -370.52)"/>
  <path class="cls-1" d="M368.51,469.44h4.82a.29.29,0,0,1,.3.29h0a.29.29,0,0,1-.3.29h-4.82a.29.29,0,0,1-.29-.29h0A.29.29,0,0,1,368.51,469.44Z" transform="translate(-283.44 -370.52)"/>
  <g>
    <g>
      <polygon class="cls-2" points="22.94 25.63 32.59 34.41 30.65 16.33 15.32 10.71 22.94 25.63"/>
      <polygon class="cls-3" points="58.6 7.5 15.32 10.71 30.65 16.33 58.6 7.5"/>
      <polygon class="cls-4" points="28.56 0 29.9 7.85 68.12 4.92 28.56 0"/>
    </g>
    <g>
      <polygon class="cls-5" points="61.75 8.25 49.39 12.43 66.14 19.51 78.49 8.82 61.75 8.25"/>
      <polygon class="cls-6" points="60.3 48.24 78.49 8.82 66.14 19.51 60.3 48.24"/>
      <polygon class="cls-7" points="81.44 25.6 73.92 22.96 57.94 57.81 81.44 25.6"/>
    </g>
    <g>
      <polygon class="cls-8" points="57.84 50.84 60.49 38.07 45.91 48.93 48.87 64.99 57.84 50.84"/>
      <polygon class="cls-9" points="24.09 29.35 48.87 64.99 45.91 48.93 24.09 29.35"/>
      <polygon class="cls-10" points="32.91 59.03 38.99 53.89 17.03 22.47 32.91 59.03"/>
    </g>
  </g>
  <text class="cls-11" transform="translate(13.07 100.85) scale(0.81 1)">F<tspan class="cls-12" x="3.24" y="0">A</tspan><tspan class="cls-13" x="7.21" y="0">CTUR</tspan><tspan class="cls-14" x="23.39" y="0">A</tspan><tspan class="cls-15" x="27.37" y="0">CION ELECTRONICA</tspan></text>
</svg>
