<?xml version="1.0" encoding="UTF-8"?>
<svg version="1.1" viewBox="0 0 1024 1024" width="1024" height="1024" xmlns="http://www.w3.org/2000/svg">
<path transform="translate(0)" d="m0 0h1024v1024h-1024z" fill="#000A13"/>
<path transform="translate(384,658)" d="m0 0h22l13 3 16 8 9 7 9 9 7 10v2l5-5 9-11 7-7 14-9 13-5 10-2h24l13 3 12 5 11 7 4 4-2 4-11 13-6 7-5-2-12-6-7-2h-14l-11 3-6 3-8 7-6 12-1 3v21l6 12 5 6 9 6 9 3h18l11-4 8-5 6-1v-9h-28v-25h58l1-11 5-15 9-13 13-13 12-7 16-5 6-1h19l14 3 14 6 12 9 8 8 9 14 5 16 1 7v17l-3 14-4 9-7 12-10 11-14 9-12 5-14 3h-16l-14-3-12-5-10-6-10-9-9-11-4-7h-2l-7 11-9 10-10 8-16 8-12 3-6 1h-12l-14-2-10-3-10-5-11-8-9-9-7-10-3-5-12 17-7 7-14 10-12 5-8 2-9 1h-11l-14-2-15-6-11-7-10-9-9-13-5-11-3-14v-21l4-15 8-15h2l2-5 9-9 4-1v-2l12-7 15-5z" fill="#A4AEB0"/>
<path transform="translate(528,133)" d="m0 0h2l7 16 8 19 6 13 10 24 5 11 12 29 12 31 4 16v13l-3 23-5 21-7 18-2 8h-2l-3 11-2 5h-2v5h-2l-1 7-6 12-9 21-10 19-9 16-3 2-15-29-8-16-11-25-7-15-8-20-6-19-3-9-3-14-3-24 1-16 1-6h2l2-9 11-28 13-31 10-23 13-30 10-23z" fill="#01442D"/>
<path transform="translate(657,658)" d="m0 0h19l14 3 14 6 12 9 8 8 9 14 5 16 1 7v17l-3 14-4 9-7 12-10 11-14 9-12 5-14 3h-16l-14-3-12-5-10-6-10-9-9-11-4-7h-2l-7 11-9 10-10 8-16 8-12 3-6 1h-12l-14-2-10-3-10-5-11-8-9-9-6-8 1-3 4 1 26 2 4 1 4-1 9 2 12 3h9l12-3 12-7 7-1 1-2-2-1v-9h-28v-25h58l1-11 5-15 9-13 13-13 12-7 16-5z" fill="#A4AEB0"/>
<path transform="translate(789,268)" d="m0 0 2 1-6 17-10 24-8 16-5 12-8 16-7 16-6 10-3 7-8 15-5 10-1 4-20 7-9 4-10 4-21 8-11 3-10 4-4 2h-6l3-4 4-1v-2l9-6 5-5 7-4 8-5 3-1 2-4 3-3h3l1-3 6-3 4-6h2l3-6h2l2-6-5 2-4 1-1 3-10 5-16 9-31 16-7 2v2l-13 6-4-1 2-1 3-5 5-6 1-9-1-4h-4l-1 3v-2l-8 7-8 8h-2l-2 4-30 30-11 9-5 4 1-5 6-9 7-15h2l2-8h2l1-4 4-10 4-8 6-13 3-8 3-4 4-9 6-15 4-7 14-8 5-2v-2l11-7 14-11 11-7 26-11 17-7 11-5 20-7 25-10 19-7z" fill="#018E52"/>
<path transform="translate(268,269)" d="m0 0 6 1 39 15 15 6 17 6 15 6 11 5 28 12 10 6 14 10 15 11 17 10 6 12 9 20v4h2l2 5v3h2l7 16 1 8 2 9 4 9 5 6 2 6 2-1v2l4 2 1 3-4-2-2 1v-2l-5-2-14-12-43-43-5-3-6-4-2 3 2 9 7 13 1 3h2l2 5-1 2-6-1-9-4v-2l-7-1-7-4v-3l-6-1-16-8-16-10-9-5h-4l2 4 4 2 4 4 4 6v2l4 2 8 6v2l4 2 7 4 4 4v2l4 1 6 4v2l5 2 1 3 3 1v2l-8-1-15-6-21-7-11-5-11-4-15-5-4-8-3-9h-2l-9-19-8-15-8-16-5-11v-3h-2l-5-12-8-18-6-16-5-12z" fill="#019B59"/>
<path transform="translate(366,451)" d="m0 0 10 2 20 7 25 7 35 9 51 11 7 2-2 2-17 6-13 6-27 12-25 10-17 5-10 2-29 2h-27l-10-4v-2l-5-1-11-5-24-13-17-10-11-6-12-7-4-4 1-3 21-7 33-8 27-5 14-2 15-5z" fill="#01442D"/>
<path transform="translate(191,662)" d="m0 0h32l1 62 7-8h2l2-4 5-6h2l2-4 7-7 2-3h2l2-4 4-5h2l2-4 14-15 2-2h42l-6 7-8 8-7 8-7 7-7 8-16 17-8 9 2 4 24 28 9 11 13 15 9 11 3 5h-41l-12-13-24-28-5-6h-2l-7 8-10 10v29h-32z" fill="#A4AEB0"/>
<path transform="translate(747,662)" d="m0 0h117v27l-9 10-15 16-7 8-12 13-11 12-12 13-7 8 73 1v30h-117v-30l12-14 11-12 7-8 11-12 7-8 12-13 9-11-69-1z" fill="#DFE6E9"/>
<path transform="translate(384,658)" d="m0 0h22l13 3 16 8 9 7 9 9 7 10v2l5-5 9-11 7-7 14-9 13-5 10-2h24l13 3 12 5 11 7 4 4-2 4-11 13-6 7-5-2-12-6-7-2h-14l-11 3-6 3-8 7-6 12-3 10-3-1-12-1h-41l-4-8v-2h-2l-4-8-5-6-10-6-14-3-11 1-12 5-10 9-5 10-2 5-4 3v-2l-15-1-11-3-1 1-1 13-2-1v-13l4-15 8-15h2l2-5 9-9 4-1v-2l12-7 15-5z" fill="#DEE5E8"/>
<path transform="translate(528,133)" d="m0 0h2l7 16 8 19 6 13 10 24 5 11 12 29 12 31 1 7-6 17-2 4-3 1-5-5-4-2-1-2-14-7-7-2-2-5-6-26-11-40-1-3-10 37-7 25-7 2-5 1-6 4-4 5h-2v2l-5 5-3 6h-2l-2 4-3-5-6-16 2-9 12-31 13-31 10-23 13-30 10-23z" fill="#7AF579"/>
<path transform="translate(690,451)" d="m0 0 10 3 9 3 36 6 25 6 19 5 15 5 1 3-17 11-17 10-16 8-14 8-8 4-15 8-7 3h-35l-26-3-15-4-25-10-2-1-1-4 4-1 10 1h18l9 1 15-1-6-3 4-3 11-6 2-7-4-1-79-1v-1l34-2 6-2 11-8 8-4 10-3-4-5 1-4 5-3 10-3 12-4z" fill="#01442D"/>
<path transform="translate(529,212)" d="m0 0 2 4 13 47 5 23 8 3 14 7v2l6 2 4 4 2 1-11 24-5 11-8 18-3 9-5 5-1-2v-37l-7 1-3 3-5 1-14-1-12-2-1-1v21l1 21-2 1-4-8-6-15-1-5h-2l-3-10-4-7-4-10-8-17 2-5 3-2 3-5 3-4h2v-2h2l1-3h2l2-4 6-4h5l5-1 7-25 10-37z" fill="#017F4A"/>
<path transform="translate(544,501)" d="m0 0 6 1 19 10 20 11 15 7v2l6 1 11 5 7 3 5 3 6 13 9 23 5 19 2 10 2 4v4h-7l-21-7-9-4-16-8-11-8-7-6v-2h-2l-7-8-5-6-7-10-8-16-7-18-6-18z" fill="#01442D"/>
<path transform="translate(512,501)" d="m0 0h4l-1 6-8 21-10 24-7 12h-2l-1 4h-2l-2 4-12 13-11 9-19 11-21 8-9 3-9 1 1-7 4-19 6-18 11-27 2-4 14-5 8-4 26-12 20-10 14-8z" fill="#01442D"/>
<path transform="translate(657,658)" d="m0 0h19l14 3 14 6 12 9 8 8 9 14 5 16 1 7v17l-2 2-1-10-18-1-10-3v-2h-2l-6-15-5-7-10-7-9-3-13-1-11 3-7 3-4 4h-2l-2 4-5 8-3 8-1 2-27 1-3 1-2 2-43-1-16-1v-2h58l1-11 5-15 9-13 13-13 12-7 16-5z" fill="#DEE5E8"/>
<path transform="translate(191,662)" d="m0 0h32l1 62 7-8h2l2-4 5-6h2l2-4 7-7 2-3h2l2-4 4-5h2l2-4 14-15 2-2h42l-6 7-8 8-7 8-7 7-7 8-16 17-8 9 2 4 24 28 9 11 13 15 9 11 3 5-4-1-13-15-9-11-10-11-9-11-8-9-5-6v-2h-4l-2-2-3 1-7-1h-14l-5-2h-8l-4 2-23-1-4-2-1-24z" fill="#DEE5E8"/>
<path transform="translate(268,269)" d="m0 0 6 1 39 15 15 6 17 6 15 6 11 5 28 12 10 6 14 10 15 11 17 10-1 2-5-1-13-8-11-8 8 15 5 9-1 3h-2v4h-2l-2 8-2 4 2 1-3 6-4-2-11-10-14-11-18-14-19-13-11-8-23-16-19-14-17-13-13-10-11-11z" fill="#79F578"/>
<path transform="translate(424,341)" d="m0 0 11 7 9 6 7 4h5l5 11 9 20v4h2l2 5v3h2l7 16 1 8 2 9 4 9 5 6 2 6 2-1v2l4 2 1 3-4-2-2 1v-2l-5-2-14-12-43-43-5-3-6-4-2 3 2 9 7 13 1 3h2l2 5-1 2-6-1-9-4v-2l-7-1-7-4v-3l-6-1-16-8-8-5 1-5-5-5-1-9-8-30-3-4 1-5 5 2 19 14 14 11 10 8 13 11 5 4v-5l2-1-1-3 6-15h2l-2-5-11-20z" fill="#017E49"/>
<path transform="translate(789,268)" d="m0 0 2 1-13 13-28 21-17 12-14 10-13 9-17 12-16 12-15 12-9 7-14 12h-3l2-4-2-7-6-7-2-1v-2h-2l-1-3 12-22-4 2-20 14h-5l1-3 12-7 5-2v-2l11-7 14-11 11-7 26-11 17-7 11-5 20-7 25-10 19-7z" fill="#7AF579"/>
<path transform="translate(663,690)" d="m0 0 13 1 11 4 9 7 7 11 3 14-1 11-5 12-9 10-10 6-9 2h-9l-12-3-10-7-6-7-5-10-2-11 2-14 5-10 4-5 7-6 12-4z" fill="#000B13"/>
<path transform="translate(394,690)" d="m0 0 13 2 10 5 5 4 5 6 5 13v18l-4 10-7 9-7 6-9 4-5 1h-12l-10-3-9-6-8-9-4-8-2-10v-7l3-11 4-8 8-8 7-4 8-3z" fill="#000B13"/>
<path transform="translate(781,736)" d="m0 0 3 1 1 2h23l2-2h7l-2 6-8 8-7 8-9 10 73 1v30h-115v-29l18-21 6-5 5-5h2z" fill="#A7B1B3"/>
<path transform="translate(366,451)" d="m0 0 10 2 20 7 10 3 4 3-3 1-1 5 10 7 20 4 11 4 11 1 46 1v1l-8 1h-93l-7-1-56-3-44-3-33-2-9-1v-2l21-7 33-8 27-5 14-2 15-5z" fill="#01603C"/>
<path transform="translate(408,464)" d="m0 0 10 2 25 7 40 9 30 6 1 2-19 7-13 6-27 12-5-1h-3-10l-2 1-22 1h-13l-18-1-9-2v-1l8-1-12-3-9-3-7-3-1-5-5-2-3-3v-2l6-1h46l7 1h93l-38-1-11-1-11-4-20-4-10-7-1-3z" fill="#01452E"/>
<path transform="translate(357,388)" d="m0 0 5 2 13 8 14 8 14 7 4 1v3l6 2 8 3v2l5 1 10 4-1-7h-2l-8-14-3-8 1-4 3-3 7 6 5 3 45 45 13 10 3 2 2-1h1l-4-3-2 1-3-8-5-6-4-11-2-11 2-1 15 30 11 19 3 7-12-2-21-6-39-12-28-9 3-1-5-6-4-2-4-4-6-3v-2l-4-2v-2l-5-2-6-4-4-4-8-6-5-8-7-6-3-4z" fill="#01442D"/>
<path transform="translate(529,507)" d="m0 0 3 2 8 23 3 8 4 9 3 11v22l-5 21-4 10-5 10-6 13-3-4-10-19-6-18-3-19v-14l6-20 3-6 4-13 5-13 3-1z" fill="#017E49"/>
<path transform="translate(789,270)" d="m0 0 1 2-5 14-10 24-8 16-5 12-8 16-7 16-6 10-3 7-8 15-5 10-1 4-20 7-9 4-10 4-21 8-11 3-10 4-4 2h-6l3-4 4-1v-2l9-6 5-5 7-4 8-5 3-1 2-4 3-3h3l1-3 6-3 4-6h2l3-6h2l2-6-2-1 13-9h3v-2l14-9 11-8 6-8 6-11 3-7 8-15 4-9 3-3h2l2-10 5-11 6-11z" fill="#017C48"/>
<path transform="translate(268,270)" d="m0 0 7 6v3l5 9 8 15 8 16 15 29 7 11 11 10 3 1v2l5 1v2h3v2l5 2 11 7 1 5 1 3 4 2 4 4 4 6v2l4 2 8 6v2l4 2 7 4 4 4v2l4 1 6 4v2l5 2 1 3 3 1v2l-8-1-15-6-21-7-11-5-11-4-15-5-4-8-3-9h-2l-9-19-8-15-8-16-5-11v-3h-2l-5-12-8-18-6-16-5-12z" fill="#017C49"/>
<path transform="translate(338,762)" d="m0 0h21l9 4 6-1 9 4 4 1h13l10-3 7-1 2-2 4-2v2l13-1h22l-2 5-8 10-10 9-11 7-14 5-13 2h-11l-14-2-15-6-11-7-10-9-8-11v-3z" fill="#767F83"/>
<path transform="translate(696,389)" d="m0 0h4l1 3-3 3h-2l-2 4-5 6-2 3-6 3-1 2h-3l-1 3-8 7-10 6-6 4-8 7-4 1v2l-6 4 2 2-48 15-20 6-16 4h-6l2-4h2l12-11 8-7 42-42 8-2 1 5-1 9-7 8-2 4 15-5v-2l27-13 22-12 9-5 6-3 1-2z" fill="#012B1F"/>
<path transform="translate(594,762)" d="m0 0h2l-2 5-8 10-11 10-14 8-11 4-12 2h-12l-14-2-10-3-10-5-11-8-9-9-6-8 1-3 4 1 26 2 4 1 4-1 9 2 12 3h9l12-3 9-2 5-2h14l3-1h15z" fill="#767F83"/>
<path transform="translate(607,763)" d="m0 0h26v2l5-1 9 1 9 4 4 1h14l10-3 7-1 4 2 1-2 7 2 20 1 3-1v3l-8 10-10 8-16 8-17 4h-16l-14-3-12-5-10-6-10-9-9-11-1-3z" fill="#899295"/>
<path transform="translate(550,331)" d="m0 0h1v39l1 1 3-3-3 11-8 23-1-4-1-1-4 9h-4l-1-2-3-1-2 4-3 1v2l-3-1v-3l-5-2h-3l-8-25-2-7 4 4-1-21v-22l6 2 15 2h7l6-2 4-2h5z" fill="#016941"/>
<path transform="translate(782,277)" d="m0 0v3l-6 12-3 7-2 8h-2l-1 3h-2l-3 9-10 18-4 10-7 11-7 6-6 4-6 3h-5l1-7-5-5-7-9-4-1-3-7 1-2h2v-5l17-12 13-9 18-13 16-12 13-10z" fill="#04B362"/>
<path transform="translate(655,461)" d="m0 0 3 1-1 4 3 3v2l-6 3-10 4-12 8-2 2-5 1-17 1 62 1 5 1-1 7-10 7-6 3v1l-12-1-35-6-32-7-12-3-18-1-4-2 2-2 42-9 40-10 25-7z" fill="#01452E"/>
<path transform="translate(690,451)" d="m0 0 10 3 9 3 36 6 25 6 19 5 15 5v2l-23 2-75 5-40 2h-39v-1l33-1 20-2 14-4 4-1-1-7-3-5v-2l-4 1-4-1v-2l17-5h4v-2l-9-1-11-4z" fill="#78F578"/>
<path transform="translate(491,525)" d="m0 0h5l-2 4-11 12-7 7-11 9-28 24-10 9-8 7-10 10-5 6-1-3 4-19 6-18 7-17 16-8 6-1v-2l14-7 7-2 12-2 6-2v-2l4-2z" fill="#0DC45E"/>
<path transform="translate(702,336)" d="m0 0 2 1-1 3h-2l1 6 2 3 4 1 7 9 5 5-1 6 5-1 4-1-4 4-8 5h-2v2l-7 4-12 8-4 1-1 3-10 5-12 7h-4v-6h2v-6l2-3h2l-1-7-1-2v-7l2-8-1-5 1-4 16-12z" fill="#019B59"/>
<path transform="translate(669,360)" d="m0 0h2l-2 7 2 1-2 8v7l2 4-1 5h-2l-2 9-2 6 2 1-33 17-7 2v2l-13 6-4-1 2-1 3-5 5-6 1-9-1-4h-4l-1 3-1-3 16-16 8-7 15-13 12-9z" fill="#017E4A"/>
<path transform="translate(364,452)" d="m0 0h4v2l-14 4h-4v2l10 2 5 2v1l-8 1v2l-5 3h-2l-2 9 9 3 15 3 20 2v1h-17l-50-3-29-2-33-2-9-1v-2l21-7 33-8 27-5 14-2z" fill="#7BF57A"/>
<path transform="translate(268,269)" d="m0 0 6 1 39 15 15 6 17 6 15 6 11 5 28 12 10 6 14 10 15 11 17 10-1 2-5-1-13-8-11-8v-2l-4-2-8-6v-2l-6-2-7-4-25-11-17-7-10-4-1-2-3 1-6-2h-5l2 6h2l3 6 4 2v2l5 2 5 4 3 6 2 1v2h2l1 7 2 1 1 3-7-2-11-8-19-13-19-14-17-13-13-10-11-11z" fill="#B7F8A8"/>
<path transform="translate(590,283)" d="m0 0h2l2 9v13l-3 23-5 21-7 18-2 8h-2l-3 11-2 5h-2v5h-2l-1 7-5 8h-3l-2-3 1-6 2-4 3-14 4-22 2-9-1 1v2l-5 2-1 2h-2l3-9 7-15 11-24 6-15z" fill="#016740"/>
<path transform="translate(253,480)" d="m0 0 23 2 38 2 40 3 21 1v1l-31 1 13 13 11 3 5 2 11 2v1l-18 1h-34l-13-4-31-13-7-3-12-5v-2l-14-2-2-1z" fill="#016941"/>
<path transform="translate(684,452)" d="m0 0 6 1 12 4 5 1v2l-18 5h-3v2h8l5 9-1 5-7 3-11 3-32 3v1h-57v-1l34-2 6-2 11-8 8-4 10-3-4-5 1-4 5-3 10-3z" fill="#017D49"/>
<path transform="translate(338,762)" d="m0 0h21l9 4 6-1 9 4 4 1h13l10-3 7-1 2-2 4-2v2l13-1h22l-2 5-8 10-3 3-5-1h-21l-35-1h-36l-5-2 2 4-4-2-8-10-2-3v-3z" fill="#899295"/>
<path transform="translate(594,762)" d="m0 0h2l-2 5-8 10-7 3h-92l-2 1-2-1-1-1-1 2-4-2-9-10-2-5h3l28 2 4 1 4-1 9 2 12 3h9l12-3 9-2 5-2h14l3-1h15z" fill="#899295"/>
<path transform="translate(425,393)" d="m0 0 8 6 5 3 45 45 13 10 3 2 2-1h1l-4-3-2 1-3-8-5-6-4-11-2-11 2-1 15 30 11 19 3 7h-3v-2l-5-2-8-7-14-9-22-12-27-13 2-1-1-7h-2l-8-14-3-8 1-4z" fill="#01452E"/>
<path transform="translate(325,715)" d="m0 0 1 3 3-1v2l19 2 5 2 3-2-1 15 3 12 7 10 7 6-2 3-9-3-6-1h-17l-8 1-5-11-3-14v-8h1z" fill="#A4AEB0"/>
<path transform="translate(548,286)" d="m0 0 9 3 14 7v2l6 2 4 4 2 1-11 24-5 11-8 18-3 9-5 5-1-2v-15l1-15v-23l-2-21z" fill="#0BC45F"/>
<path transform="translate(622,778)" d="m0 0h17l9 1 24 1h11l28 3 2 2-10 7-11 5-17 4h-16l-14-3-12-5-10-6-6-5 2-1 1-2z" fill="#767F83"/>
<path transform="translate(456,360)" d="m0 0 3 4 7 16 4 9v4h2l2 5v3h2l7 16 1 8 2 9 4 9 5 6 2 6 2-1v2l4 2 1 3-4-2-2 1v-2l-5-2-14-12-15-15-6-7-3-12-1-17-5-10-2-7 4-1 3 3 5-1 1-4-4-10z" fill="#017D49"/>
<path transform="translate(620,548)" d="m0 0 9 3 9 5 6 13 7 21 4 19-1 3-20-20-11-9-12-11-8-7-9-8v-2l6 1 13-3 4-3 2 1z" fill="#79F578"/>
<path transform="translate(507,275)" d="m0 0h5l-4 26-2 27-2 4h-2l-3 9-2 4-5-3-5-10-4-10-8-17 2-5 3-2 3-5 3-4h2v-2h2l1-3h2l2-4 6-4h5z" fill="#0CC45E"/>
<path transform="translate(529,212)" d="m0 0 2 4 13 47 4 19v3h-2l-1-6-8-1-16 8-9 4-3 9h-1v-7l5-24 7-25 8-30z" fill="#029D5A"/>
<path transform="translate(273,277)" d="m0 0 4 1 8 7 16 12 11 8-1 2 4 3v2l5 2 5 5 1 6 2 2v12l-5 11-1 3h-2l-1 3-5-4-4-4-11-22-6-10-8-17-7-13-5-8z" fill="#04B462"/>
<path transform="translate(705,721)" d="m0 0 1 3 9 3 6 1 16 1 1 15-4 13-6 11-8 3v-2h-19l-5-2-4 1-3-1-1-2 8-6 7-12 2-7z" fill="#A4AEB0"/>
<path transform="translate(804,480)" d="m0 0 1 2-10 2-17 7-14 7-10 4-21 8-7 2h-38v-2h11v-2h4v-2l6-4 5-6 7-4 3-5v-1l41-3 31-2z" fill="#017E49"/>
<path transform="translate(789,268)" d="m0 0 2 1-13 13-28 21-17 12-14 10-13 9-3 2h-3l1-4 6-5 4-7 7-8 5-5 5-9v-2l-6 1-22 8-13 6-13 5-12 5-2-1 10-5 31-13 11-5 20-7 25-10 19-7z" fill="#B7F7A8"/>
<path transform="translate(604,384)" d="m0 0 3 1-2 5-3 7-2 1v2h2v7l-3 14-3 3-1 4-31 31-11 9-5 4 1-5 6-9 7-15h2l2-8h2l1-4 4-10 4-8 6-13 3-8 2-1-1 4 4 1v-2h3v-2l6-5h2v-2z" fill="#017D49"/>
<path transform="translate(696,389)" d="m0 0h4l1 3-3 3h-2l-2 4-5 6-2 3-6 3-1 2h-3l-1 3-8 7-10 6-6 4-8 7-4 1v2l-6 4 2 2-48 15-4 1h-8l2-2 8-3h2v-2l4-2h4v-2l10-3v-2l11-7 9-6 5-2 6-4 8-4 3-4 5-3 3-2 1-3-3-1 25-13 5-3 6-3 1-2z" fill="#01442D"/>
<path transform="translate(466,280)" d="m0 0 2 3 9 24 9 20 7 15-1 2-5-2 1 11 3 22 2 10v4l2 1 2 13v3l-4-4-9-21-5-13-6-19-3-9-3-14-3-24 1-16z" fill="#01673F"/>
<path transform="translate(424,341)" d="m0 0 11 7 9 6 7 4h5l4 13 1 4-4 4-4-1-2-2h-3l3 10 4 7 1 17 2 10 1 2-4-2-7-6-7-8-13-13v-6l2-1-1-3 6-15h2l-2-5-11-20z" fill="#018F52"/>
<path transform="translate(530,513)" d="m0 0h1v31h4l2-5 5-2 5 12 3 11v22l-4 16-3 4h-3v-2l-4-1-5-2-1 13h-1l-1-12v-72l1-12z" fill="#019B59"/>
<path transform="translate(541,367)" d="m0 0 5 2v2h2v8l-2 16-2 7-1-4-1-1-4 9h-4l-1-2-3-1-2 4-3 1v2l-3-1v-3l-5-2h-3l-3-9 1-6-2-10v-9l3 1v-2l7-1z" fill="#015C3A"/>
<path transform="translate(324,368)" d="m0 0 5 1 3 1v2l5 1v2h3v2l5 2 11 7 1 5 1 3 4 2 4 4 4 6v2l4 2 8 6v2l4 2 7 4 4 4v2l4 1 6 4v2l5 2 1 3 3 1v2l-8-1-15-6-15-5 4-1-2-4-4-4-4-5-7-4v-2l-4-2-4-4v-2h-2v-2h-2l-7-8-8-8v-2h-2l-9-11-3-4z" fill="#016840"/>
<path transform="translate(395,366)" d="m0 0 5 3 10 8 13 11 12 11h-3l-7-5-2 3 2 9 7 13 1 3h2l2 5-1 2-6-1-9-4v-2l-7-1-7-4 1-2h3l-2-5-3-3-6-15-2-10-2-6-2-2-1-4z" fill="#016840"/>
<path transform="translate(729,367)" d="m0 0h5l-2 6-19 19-7 8-5 2v3l-9 7-6 6h-2l-2 4-9 6-4 2-5 6 5-2h5l-2 2-16 5-16 6-1 1h-6l3-4 4-1v-2l9-6 5-5 7-4 8-5 3-1 2-4 3-3h3l1-3 6-3 4-6h2l3-6h2l2-6-2-1 13-9h3v-2l14-9z" fill="#016840"/>
<path transform="translate(401,415)" d="m0 0h5l11 6 4 1v2l5 1 45 22 12 7 15 10 10 8 2 2-9-1-8-2v-2l-8-4-8-2-9-6-9-3-19-10-22-11-4-4-7-5-6-7z" fill="#012B1F"/>
<path transform="translate(428,552)" d="m0 0 2 1 1 5v2l9 6 7 3v3l-12 11-11 9-15 15-5 6-1-3 4-19 6-18 7-17z" fill="#78F578"/>
<path transform="translate(723,486)" d="m0 0 2 2h-2l1 3-7 5-3 1-7 8-4 1v2h-4v2l-11 1h-18l-12-1-1-2 8-4 8-5 1-6-4-1-22-1v-1z" fill="#016941"/>
<path transform="translate(491,493)" d="m0 0h13l-3 2-17 7-20 9-9 4-5-1h-3-10l-2 1-22 1h-13l-18-1-9-2v-1l31-3 37-6 42-9z" fill="#012B1F"/>
<path transform="translate(408,464)" d="m0 0 10 2 25 7 40 9 24 5-3 2h-46l-11-1-11-4-20-4-10-7-1-3z" fill="#01432D"/>
<path transform="translate(550,561)" d="m0 0 2 3 3 6v16l-4 19-7 17-9 15-4 6-4-1-7-10-6-11-6-14-4-15-1-8v-14l4-8h1l2 21 3 16 6 16 10 19 3-4 7-16 4-9 4-13 2-10z" fill="#01422C"/>
<path transform="translate(762,503)" d="m0 0 3 1v2l-24 13-8 4-15 8-7 3h-35l-20-2v-2l11-3 11-1 10-3 15-3 19-3 15-4 8-4 11-2z" fill="#015938"/>
<path transform="translate(619,408)" d="m0 0 2 1v8l-2 7-6 6-2 6-23 12-20 12-11 8-1 4-4 2h-6l2-4h2l12-11 8-7 42-42z" fill="#01452E"/>
<path transform="translate(644,382)" d="m0 0 2 1v9l-3 16-4 10-4 6-9 3v2l-13 6-4-1 2-1 3-5 5-6 1-9-1-4h-4l-1 3-1-3 16-16 8-7 4-3z" fill="#016941"/>
<path transform="translate(359,465)" d="m0 0h12l17 5v9l3 4 12 5 12 1v1h-19l-12-2-17-2-16-4-3-2 1-6 1-3 5-3h2v-2z" fill="#03AA5D"/>
<path transform="translate(354,337)" d="m0 0 4 1 4 3 1 6 2 5 4 14 5 18v6l5 5v4l-6-1-16-10-10-7 4-3 2-7 1-2 2-15-1-7-1-5h2v-2h-2z" fill="#018F52"/>
<path transform="translate(710,330)" d="m0 0 5 1 6 8 3 2 1 4 5 3 3 1 1 2 4 2v2l3-1v2l2 1-8 7-6 4-6 3h-5l1-7-5-5-7-9-4-1-3-7 1-2h2v-5z" fill="#04A85B"/>
<path transform="translate(511,505)" d="m0 0v3l-9 12-5 6h-6l-6 3-2 2-2-1v2l-9 4-12 2-7 3-8 4h-3v2l-12 5-9 3 3-9 2-4 14-5 6-3 9-2 7-4h10v-2l9-4 7-4 16-8 3-1 1-3h2z" fill="#016740"/>
<path transform="translate(552,492)" d="m0 0h15l30 7 36 7 34 5-4 2-20 1-4-1h-24l-7-1v3l-10-3-18-8-25-10z" fill="#012B1F"/>
<path transform="translate(561,523)" d="m0 0 4 1 2 1v2l6 1 5 2 14 3 9 4 16 8 4 3-2 3-4 2-9 3-9 1-3-2-1 2-11-11-8-7-13-14z" fill="#0CC55F"/>
<path transform="translate(683,466)" d="m0 0 11 1 5 9-1 5-7 3-11 3-20 2h-14l4-4 5-4 2-7 7-3z" fill="#019A59"/>
<path transform="translate(466,866)" d="m0 0h10l7 6 2 4v11l-4 7-8 4-8-1-7-6-2-5v-9l3-6 4-4z" fill="#D8DFE2"/>
<path transform="translate(457,563)" d="m0 0 1 2h-2l-2 4-6 6h3l1-2 3 1v3h2l-2 9-4 5-9 6-8 4-16 7h-5l-1 3-6 3h-2l-1 2 1-4 12-13 9-9 11-9 11-10z" fill="#016941"/>
<path transform="translate(632,468)" d="m0 0 3 1h-2l-2 7-1 2-10 4-8 4-10 2-18 2-24 1v1h-11l-4-2 2-2 42-9 40-10z" fill="#01432D"/>
<path transform="translate(504,866)" d="m0 0h13l7 3 4 5 1 2v12l-6 7-4 2h-15z" fill="#D5DDDF"/>
<path transform="translate(471,393)" d="m0 0 2 3 1 5h2l7 16 1 8 2 9 4 9 5 6 2 6 2-1v2l4 2 1 3-4-2-2 1v-2l-5-2-14-12-10-10v-5l1-4-2-1-1-14 3-9z" fill="#016740"/>
<path transform="translate(528,133)" d="m0 0h2l7 16 8 19 6 13 10 24 5 11 5 12-1 3-8-18-9-20-5-10v-3l-2-1-2-6-5-8h-2l-2 8h-2l-1 6-2 4-2-4v-10l-2-5-2-4-2-2-1 2h-2l-2 6-3 3 1-5 4-9 8-19z" fill="#B9F6AA"/>
<path transform="translate(736,382)" d="m0 0 2 1-1 6-8 16-4 7-1 4-20 7-6 3h-7l-3-2 5-3 4-6h2v-2l6-5 5-3 1-2h2l1-3 5-4 5-5 6-3 5-4z" fill="#019556"/>
<path transform="translate(479,316)" d="m0 0 4 4 4 8 3 7 3 9-6-2 1 11 3 22 2 10v4l2 1 2 13v3l-4-4-9-21-5-13-2-5v-3h2v-26l-1-3v-13z" fill="#015A39"/>
<path transform="translate(613,574)" d="m0 0 8 6 11 10 8 7 14 14 2-1-1 4-13-5-18-8-10-5-8-6-3-2-1-6 1-2h6l5-1 1 3h2l1-2-4-2z" fill="#015D3A"/>
<path transform="translate(655,461)" d="m0 0 3 1-1 4 3 3v2l-6 3-10 4-12 8-2 2-5 1-17 1 2 2h-50l-9-1v-1l33-1 23-3 9-3 11-5h3l2-7 4-4 18-5z" fill="#016740"/>
<path transform="translate(549,507)" d="m0 0 7 4v2l10 5 4 1 6 3 9 3 11 4 1 1 11 2 10 5 9 3 6 4 5 10-1 2-42-21-10-3-10-2-10-4-2-2h-3l-11-15z" fill="#016A41"/>
<path transform="translate(507,275)" d="m0 0h5l-3 17-2 4-2-3-7 4-7 6-1 2h-2l-2 5-2 2 1 7-2 2-8-16 2-5 3-2 3-5 3-4h2v-2h2l1-3h2l2-4 6-4h5z" fill="#2FD25F"/>
<path transform="translate(575,327)" d="m0 0h2v6l-1 3-3 21-2 13-3 9-1 14-2 10-5 8h-3l-2-3 1-6 2-4 3-14 4-22 2-9-1 1v2l-5 2-1 2h-2l3-9 7-15 4-8z" fill="#015C3A"/>
<path transform="translate(319,382)" d="m0 0 6 2v2l4 2 12 11 5 6 11 9 3 3-1 2h2l2 4 4 3-13-2-12-5-8-3-6-14v-2h-2l-4-8z" fill="#019456"/>
<path transform="translate(396,866)" d="m0 0h7l9 15 1-15h7l1 1v30h-7l-7-10-3-5-1 15h-7z" fill="#D6DEE1"/>
<path transform="translate(537,277)" d="m0 0h5l3 2 1 6h2v4l-4 1-1 3-7 4-9 2-1 2-9 1-1-1-6 2-3 2 1-6 3-9 19-10z" fill="#019053"/>
<path transform="translate(799,770)" d="m0 0h65v30h-114v-9h18l19 1 9 3 9 1v2l58 1v-28h-64z" fill="#879093"/>
<path transform="translate(438,367)" d="m0 0 3 3 8 14 1 6-1 3h-2l1 8 3 8-2 3-4-2-17-17v-6l2-1-1-3 6-15z" fill="#0DC55F"/>
<path transform="translate(529,212)" d="m0 0 2 4 7 25v2h-2l-1 6-3 6-9 9h-8l1-8 7-24 5-19z" fill="#05A95B"/>
<path transform="translate(633,866)" d="m0 0h7l9 15 1-15h7v31h-6l-7-10-3-5-1 15h-7z" fill="#DBE3E6"/>
<path transform="translate(677,356)" d="m0 0 4 2 3 5-3 9 1 6 1 1v6l-6 11v3l2 2-11 6h-4v-6h2v-6l2-3h2l-1-7-1-2v-7l2-8-1-5 1-4z" fill="#018F52"/>
<path transform="translate(222,772)" d="m0 0h1v28h-32v-24h1v9l18-3 8-1 4 1z" fill="#879093"/>
<path transform="translate(314,516)" d="m0 0h5l3 2 22 3 16 3 8 1 6 2 16 1 6 3-3 2-19 1h-27l-10-4v-2l-5-1-11-5-7-4z" fill="#015838"/>
<path transform="translate(320,486)" d="m0 0h20l35 2v1l-31 1 13 13 11 3 5 2 11 2v1l-18 1h-12l2-2-10-4-7-2-9-6-3-5-7-6z" fill="#015D3A"/>
<path transform="translate(491,525)" d="m0 0h5l-2 4-11 12-7 7-6 4v-2l-8 2-13-3-7-3 3-2 11-6 7-2 12-2 6-2v-2l4-2z" fill="#04B061"/>
<path transform="translate(548,286)" d="m0 0 9 3 14 7v2l6 2 4 4 2 1-9 20-2 1 2-8-7-6-5-3-8-5-3 2-2-10z" fill="#2ED25F"/>
<path transform="translate(310,306)" d="m0 0 4 1 14 10 8 8v2h2l2 12-5 12-3 3h-2l-2 5-5 2v2l-4-2-7-9h3 2l2 3 1-2h2l1-6 4-8v-12l-3-5v-4l-9-6z" fill="#04A85B"/>
<path transform="translate(331,866)" d="m0 0h14l6 3 3 6-1 7-6 5-8 1v9h-8z" fill="#D3DADD"/>
<path transform="translate(698,866)" d="m0 0h8l4 9 7 20v2h-9l-1-7-9 1-2 6h-7l1-7 7-23z" fill="#CBD3D6"/>
<path transform="translate(620,366)" d="m0 0h2v2h2v2l4 2 6 7 1 8-4 6-8 7-7 7-2-1 3-7-1-9-2-7-2-1 1-5z" fill="#2ED25F"/>
<path transform="translate(379,866)" d="m0 0h8v22l-3 5-5 4-7 1-7-3-4-5v-23h7l1 21 2 2h5l2-2z" fill="#DBE2E5"/>
<path transform="translate(575,418)" d="m0 0 1 3-2 5 1 4 5 5 2 1v5l-18 18-11 9-5 4 1-5 6-9 7-15h2l2-8h2l1-4 4-10z" fill="#01673F"/>
<path transform="translate(607,866)" d="m0 0h18v7h-10v5h9l1 5-1 1h-9v6h10l1 1v5l-1 1h-18z" fill="#D3DBDE"/>
<path transform="translate(537,866)" d="m0 0h18v7h-11v5h9v6h-9v7h11v6h-19v-30z" fill="#D0D8DB"/>
<path transform="translate(572,866)" d="m0 0h8l3 8 3 11h2l2-10 3-9h8l-3 10-7 20-1 1h-7l-5-11-6-17z" fill="#D5DCDF"/>
<path transform="translate(611,380)" d="m0 0 3 3 3 7 1 10-3 7-6 7-11 11-3 1 2-4 3-9 2-13h-2l3-9z" fill="#019B59"/>
<path transform="translate(666,489)" d="m0 0h28v3l-2 6-9 8h-3v2l-7 3-15-1-1-2 8-4 8-5 1-6-4-1-22-1v-1z" fill="#015D3A"/>
<path transform="translate(339,377)" d="m0 0 5 1 13 9v4l1 3 4 2 4 4 4 6v2l4 2 8 6v2l4 2 7 4 4 4v2l4 1 6 4v2l5 2 1 3 3 1v2l-8-1-3-2 1-1-2-1v-2h-2v-2l-3-1-4-4-5-3-9-7-8-7-10-9-6-5-7-8-9-9z" fill="#015B39"/>
<path transform="translate(408,377)" d="m0 0 5 2 13 12 8 7 1 2-4-2-6-4-2 3 2 9 7 13 1 3h2l2 5-1 2-6-1-9-4v-1h5l-8-14-4-10-3-14-3-6z" fill="#015D3A"/>
<path transform="translate(737,516)" d="m0 0 3 1v2l-14 8-8 4-7 3h-23l-8-1 4-4 10-3 7-1 1-1 8-1 5-2 11-2z" fill="#016840"/>
<path transform="translate(268,782)" d="m0 0 6 2 5 1 15 2 9 4 12 6 1 3h-33l-12-13z" fill="#889194"/>
<path transform="translate(716,376)" d="m0 0 3 1-2 6-5 2-1 3-7 5-7 8-4 5-6 4h-2l-1 4-6 2-2 4-9 6-4 2-5 5-9 7-3 2 3 2-10 4h-6l3-4 4-1v-2l9-6 5-5 7-4 8-5 3-1 2-4 3-3h3l1-3 6-3 4-6h2l3-6h2l2-6-2-1 13-9h3v-2z" fill="#015C3A"/>
<path transform="translate(388,470)" d="m0 0 9 2 3 1v2l3 1 1 4 4 1 7 4 9 3 46 2v1h-67l-1-3-12-5-3-4z" fill="#017F4A"/>
<path transform="translate(731,588)" d="m0 0h9l5 4 1 2v9l-5 6-2 1h-8l-6-5-1-9 4-6z" fill="#CED6D9"/>
<path transform="translate(515,549)" d="m0 0 3 1 3 12v13l-4 12-5 2-3-6-1-7v-14l3-8 3-3z" fill="#018E52"/>
<path transform="translate(250,588)" d="m0 0h8l5 4 1 2v10l-5 5-2 1h-7l-5-4-2-5 1-8z" fill="#CCD4D7"/>
<path transform="translate(427,866)" d="m0 0h25v7h-9v24h-8v-24h-8z" fill="#D2DADD"/>
<path transform="translate(552,322)" d="m0 0h1l2 9 2 5 5 1 3 1 3-1-2 5-7 16-3 9-5 5-1-2v-15z" fill="#03A65B"/>
<path transform="translate(561,523)" d="m0 0 4 1 2 1v2l6 1 5 2 14 3 9 4 8 4-4 2-10 1-13-2-2 3-12-12-7-8z" fill="#019B59"/>
<path transform="translate(664,866)" d="m0 0h24v7h-8v24h-8v-24h-8z" fill="#D3DADD"/>
<path transform="translate(633,341)" d="m0 0 1 2-12 22-3 2 1-4 1-3h-4l-2 4h-4l-2 4-6 6h-5v2l-2-1 3-11 4-7 1 2 7-2 11-8z" fill="#039B58"/>
<path transform="translate(709,458)" d="m0 0 14 1 32 6 34 9 15 5v2l-23 2-16 1h-19l4-2 18-2 19-1-2-2-24-7-16-4-34-6z" fill="#B5F3A7"/>
<path transform="translate(505,328)" d="m0 0h1l1 20 2 20v8l-2 1-4-8-6-15-1-5h-2l-1-6 4 1 4-10 1-2h2z" fill="#03A75B"/>
<path transform="translate(253,480)" d="m0 0 23 2 20 1v1l-8 1 5 2 8 5 4 4 3 1v2h2v3l-10-2-12-5-7-3-12-5v-2l-14-2-2-1z" fill="#017E49"/>
<path transform="translate(629,395)" d="m0 0 3 1-1 9-3 16-3 5 1 3-13 6-4-1 2-1 3-5 5-6 1-9-1-4-3-1z" fill="#015B39"/>
<path transform="translate(366,451)" d="m0 0 10 2 8 3v2l4 1v2l-4 1v2h-4v2l-6 1-12-3-12-4v-2l14-4h4v-2z" fill="#01804A"/>
<path transform="translate(658,471)" d="m0 0m-1 1 1 2-2 7-7 6-3 2 2 2h-57v-1l34-2 6-2 11-8 8-4z" fill="#01804A"/>
<path transform="translate(640,466)" d="m0 0 3 1-1 5-3 5-6 4-22 7h-3v2l2 2h-50l-9-1v-1l33-1 23-3 9-3 11-5h3l2-7 4-4z" fill="#015B39"/>
<path transform="translate(616,591)" d="m0 0 5 2h13l6 4 14 14 2-1-1 4-13-5-18-8-10-5 1-4z" fill="#016941"/>
<path transform="translate(477,406)" d="m0 0 3 4 3 7 1 8 2 9 4 9 5 6 2 6 2-1v2l4 2 1 3-4-2-2 1v-2l-5-2-13-11 1-9-3-7-1-11 1-4z" fill="#015A39"/>
<path transform="translate(354,730)" d="m0 0 2 2 2 10 4 8 9 10 12 6 5 1h12l10-3 9-6 6-7 4-8 2-5h1l-1 8-4 8-8 9-14 7-5 1h-13l-11-4-9-6-7-8-4-8-2-9z" fill="#D5DDE0"/>
<path transform="translate(705,736)" d="m0 0 1 4-4 11-7 10-9 6-7 3-5 1h-14l-12-4-9-7-6-7-3-6v-2l3 1 7 10 9 7 8 3 6 1h9l11-3 9-6 7-8z" fill="#D6DDE0"/>
<path transform="translate(359,465)" d="m0 0h12l6 2v1l-8 1-3 2h-2v2h-2l-1 7 1 2 8 2 12 1 8 2v1l-18-1-15-3-9-4 1-6 1-3 5-3h2v-2z" fill="#2ED25F"/>
<path transform="translate(349,299)" d="m0 0 20 8 23 10 16 8 16 12 14 10 17 10-1 2-5-1-13-8-11-8v-2l-4-2-8-6v-2l-6-2-7-4-25-11-17-7-9-4z" fill="#B4E8A8"/>
<path transform="translate(683,466)" d="m0 0 11 1 5 9-1 5-7 3-11 3-14 1v-1l9-2 10-4h2l-3-7-7-4-3-1z" fill="#2ED25F"/>
<path transform="translate(491,739)" d="m0 0 2 1 6 12 5 6 9 6 9 3h18l11-4 8-5h8l-1 3-7 1-14 8-10 2h-9l-14-4-11-8-7-10-3-8z" fill="#D4DBDE"/>
<path transform="translate(269,588)" d="m0 0h4l4 10v3h2l1-5 3-8h4l1 7v14h-3l-2-9-3 9-4-1-2-5v-3h-2v9h-4z" fill="#CED6D9"/>
<path transform="translate(504,514)" d="m0 0 1 2-8 10h-6l-6 3-2 2-2-1v2l-9 4-12 2-7 3-8 4-3-1 6-2v-2l4-2 1-2 7-2 20-8 9-4 8-4 5-3z" fill="#017E4A"/>
<path transform="translate(490,557)" d="m0 0h1l-1 7h-2l-1 4h-2l-2 4-11 12-7 1-3-2 1-4 8-8h2v-2l5-1 1-3h2v-2l6-3h2z" fill="#015938"/>
<path transform="translate(457,563)" d="m0 0 1 2h-2l-2 4-6 6h3l1-2 3 1v3h2l-2 9-3 3-1-2h-11l-6-2 2-4 11-10z" fill="#015E3B"/>
<path transform="translate(506,306)" d="m0 0h1l-1 22-2 4h-2l-3 9-2 4-5-3-5-10 1-2 4 2 1-3 4-5 4-2 2-5z" fill="#03B362"/>
<path transform="translate(323,521)" d="m0 0 8 1 6 1 9 2 14 2 11 4-3 2-3 1h-18l-10-4v-2l-5-1-9-5z" fill="#016740"/>
<path transform="translate(797,588)" d="m0 0 5 1 7 10 1-11h4v21l-2 1-5-5-5-8-1 13-4-1z" fill="#C7CFD2"/>
<path transform="translate(434,549)" d="m0 0 4 1 3 7 9 7 6-2 4-2-5 5-7 6-5-3-6-3-7-5-1-7 3-3z" fill="#2ED25F"/>
<path transform="translate(491,525)" d="m0 0h5l-2 4-6 7-12 2-1 2-10 3h-7l-5-2 3-3 7-2 12-2 6-2v-2l4-2z" fill="#019958"/>
<path transform="translate(508,503)" d="m0 0h5l-1 3-9 5-5 3-12 6-5 3-9 3v2l-10 1-9 5h-5l3-2 39-19z" fill="#015C3A"/>
<path transform="translate(327,588)" d="m0 0 4 1 7 9 1-10h4v21l-4-1-7-10-1 11h-4z" fill="#CDD5D7"/>
<path transform="translate(293,588)" d="m0 0h10l5 5-1 6-3 3h-7v7h-4z" fill="#C8CFD2"/>
<path transform="translate(684,452)" d="m0 0 6 1 12 4 5 1v2l-13 4h-3v-2l-7-1-16-2 4-3z" fill="#029B59"/>
<path transform="translate(469,872)" d="m0 0 5 1 3 3v11l-3 4h-6l-3-3-1-3v-7l3-5z" fill="#000F15"/>
<path transform="translate(751,588)" d="m0 0h9l5 4v7l-6 4h-5v6h-3z" fill="#D1D8DB"/>
<path transform="translate(449,385)" d="m0 0 3 3 3 5 1 17 2 10 1 2-4-2-7-6 2-6-1-1v-5l-2-1v-8h2z" fill="#019958"/>
<path transform="translate(531,509)" d="m0 0 2 3 7 20 1 5-5 5-1 2h-4l-1-18z" fill="#017D49"/>
<path transform="translate(613,377)" d="m0 0 5 2v2l3 1 2 5 2 1-1 3h2l-1 5-3 5-6 6-2-1 3-7-1-9-2-7-2-1z" fill="#0BC35F"/>
<path transform="translate(438,367)" d="m0 0 3 3 2 3v3l-4 2-4 13-1 5v3l-6-6v-6l2-1-1-3 6-15z" fill="#2FD35F"/>
<path transform="translate(820,588)" d="m0 0h14l-1 4h-10v5h9v3h-9v6h11v4h-14z" fill="#D4DBDE"/>
<path transform="translate(445,378)" d="m0 0 3 4 2 5-1 6h-2l1 8 3 8-2 3-4-2-3-3-1-14 2-6z" fill="#04B362"/>
<path transform="translate(677,469)" d="m0 0 9 6 1 6-15 6-12 2h-14v-1l10-1 3-2h10l5-1 2-6-3-8z" fill="#0CC55F"/>
<path transform="translate(611,380)" d="m0 0 3 3 3 7 1 10-3 7-4 5h-2v-8l2-5-3-9h-2l1-4z" fill="#03A85C"/>
<path transform="translate(531,582)" d="m0 0 3 4 3 5 4 2 4-1 3-3-2 9-3 4h-3v-2l-4-1-5-2-1 13h-1l-1-20h1l1-7z" fill="#019053"/>
<path transform="translate(546,503)" d="m0 0 6 2 5 4 10 6 11 5 16 5 10 5v1h-7l-5-3-11-4-10-3-3-2-6-2-6-4v-2l-5-2-3-1z" fill="#015838"/>
<path transform="translate(483,419)" d="m0 0 3 4 13 26 5 9-5-2h-3l-3-8-5-6-4-11-2-11z" fill="#01432C"/>
<path transform="translate(552,322)" d="m0 0h1l2 9 2 5 5 1 3 1 3-1-2 5-4 8-9-4-1-1z" fill="#03B362"/>
<path transform="translate(314,588)" d="m0 0 3 1 7 17v3h-4l-2-4-6-1-1 5h-4l3-11z" fill="#C1CBCD"/>
<path transform="translate(231,587)" d="m0 0 6 1 3 2-2 4-4-2-5 1-2 3v6l2 3h6l4-1v4l-3 2h-7l-5-3-2-4v-8l3-5z" fill="#CED5D8"/>
<path transform="translate(576,536)" d="m0 0h13l1 1h8l9 3 2 2-9 2h-8l-10-2-2 3-3-3z" fill="#04A95C"/>
<path transform="translate(733,591)" d="m0 0h5l4 4v7l-4 4-7-1-3-5 1-6z" fill="#000F15"/>
<path transform="translate(612,544)" d="m0 0 5 1 4 3-2 3-4 2-9 3-9 1-3-2-1 2-7-7h3l2 1h15v-2l6-2z" fill="#2DD15F"/>
<path transform="translate(505,347)" d="m0 0 2 1 2 20v8l-2 1-4-8-5-12v-3l5-2z" fill="#019A58"/>
<path transform="translate(527,509)" d="m0 0h1v16l-1 13-5-1v-2l-4 1 1-8 7-18z" fill="#01663F"/>
<path transform="translate(387,470)" d="m0 0h1v9l3 4 12 5 12 1v1h-19l-6-2v-2l-4-2-7-5 1-7z" fill="#09A75B"/>
<path transform="translate(530,513)" d="m0 0h1v52l-1 8-2-2v-45l1-12z" fill="#13BA5F"/>
<path transform="translate(481,536)" d="m0 0 3 1-7 7h-3l-6 1-1 3h-3-10l-7-4 4-3 14 1 7-2z" fill="#03A85B"/>
<path transform="translate(512,873)" d="m0 0h6l3 3 1 9-2 4-4 2h-4z" fill="#000D14"/>
<path transform="translate(318,462)" d="m0 0h7l-1 2-17 3-27 7-14 4-2 1 5 1v1h-15v-2l21-7 33-8z" fill="#B3E9A8"/>
<path transform="translate(384,457)" d="m0 0 9 2 6 3v2l-4 2 1 6-14-3-4-2 2-1v-2h4v-2l4-1v-2z" fill="#016941"/>
<path transform="translate(253,591)" d="m0 0 6 2 1 2v8l-3 3h-6l-3-3v-9z" fill="#000E14"/>
<path transform="translate(346,588)" d="m0 0 5 1 3 6 3-4 2-3h4l-2 6-3 5-1 10-5 1-1-10-5-11z" fill="#C2CACD"/>
<path transform="translate(614,484)" d="m0 0m-2 1h2v2l-6 1v2l2 2h-50l-9-1v-1l33-1 23-3z" fill="#015F3B"/>
<path transform="translate(798,482)" d="m0 0h5l-4 4-11 7-10 4-5-1-4-2z" fill="#015C3A"/>
<path transform="translate(319,382)" d="m0 0 6 2v2l4 2 12 11 5 6 11 9 3 3-5-1-7-5-5-5-6-5v-2h-2v-2l-4-2-5-4-2-1-2 2z" fill="#018F52"/>
<path transform="translate(555,515)" d="m0 0h2v2l9 3 8 4 18 7 3 3-20-4-10-4-2-2h-3l-5-7z" fill="#017E49"/>
<path transform="translate(400,473)" d="m0 0 6 2 9 5 10 3 2 2 10 3v1h-13l-13-5-7-4-2-4-2-1z" fill="#016941"/>
<path transform="translate(398,461)" d="m0 0 6 1 6 3-3 2-1 5 9 7-2 1-11-6-6-2-2-2 1-5 4-1z" fill="#015A39"/>
<path transform="translate(466,280)" d="m0 0 2 3 6 16-1 5-7-2v11h-1l-1-17z" fill="#015636"/>
<path transform="translate(368,468)" d="m0 0h6l-1 3-3 2-1 4 2 4 4 1 1 3-10-1-5-2-1-6 2-3h2v-2z" fill="#0CC55F"/>
<path transform="translate(411,328)" d="m0 0 7 4 18 14 19 11-1 2-5-1-13-8-11-8v-2l-4-2-8-6v-2h-2z" fill="#ADE4A5"/>
<path transform="translate(579,569)" d="m0 0h4l2 4 9 5 2 6h-8l-4-2-5-5-2-6z" fill="#015938"/>
<path transform="translate(424,341)" d="m0 0 11 7 1 3 3 2v2h2l-1 5-2 2 1 5-4-4-11-20z" fill="#049E59"/>
<path transform="translate(540,537)" d="m0 0h2l5 12-1 2-3-4v-2l-4 1-6 11-2 1v-14h4l2-5z" fill="#018A50"/>
<path transform="translate(770,588)" d="m0 0h4v18h9v4h-12l-1-1z" fill="#CCD4D7"/>
<path transform="translate(740,880)" d="m0 0h40v3h-41z" fill="#A6AFB2"/>
<path transform="translate(671,469)" d="m0 0 3 1 3 10-5 5-3 1h-7l6-8 2-6-4-1z" fill="#03A95C"/>
<path transform="translate(547,502)" d="m0 0 4 1 16 8 22 12-2 1-14-5-19-11-7-5z" fill="#01412B"/>
<path transform="translate(277,880)" d="m0 0h39v3h-39z" fill="#9DA6A9"/>
<path transform="translate(603,391)" d="m0 0h1l1 6v16 2 3l-7 7-3 1 2-4 3-9 2-13h-2z" fill="#018F52"/>
<path transform="translate(789,270)" d="m0 0 1 2-4 10-2 1-2 7h-2l-1 5-5 5-2-1 6-13 6-11z" fill="#029556"/>
<path transform="translate(268,270)" d="m0 0 7 6v3l5 9 4 8-3 1-4-1-9-24z" fill="#01864E"/>
<path transform="translate(517,611)" d="m0 0 4 2 4-1v2h2l2 10v10l-3-4-9-17z" fill="#016840"/>
<path transform="translate(637,335)" d="m0 0 1 2-8 7-8 6-13 9h-5l1-3 12-7 5-2v-2l11-7z" fill="#9DEE96"/>
<path transform="translate(546,175)" d="m0 0h2l6 13 7 17 5 11 5 12-1 3-8-18-9-20-5-10v-3l-2-1z" fill="#B6F0A9"/>
<path transform="translate(366,451)" d="m0 0 5 1 5 5-9 2-6 2-4-1-4 1-3-1v-2l14-4h4v-2z" fill="#019053"/>
<path transform="translate(712,297)" d="m0 0 3 1-1 2-14 5-13 6-13 5-12 5-2-1 10-5 31-13z" fill="#B6F0A9"/>
<path transform="translate(700,593)" d="m0 0 4 1-1 3 5 4v6l-3 3h-7l-3-3v-3l8 2-1-5-3-2v-5z" fill="#CAD2D5"/>
<path transform="translate(529,212)" d="m0 0 2 4 3 12-8 4-2-4 4-15z" fill="#0AB861"/>
<path transform="translate(590,283)" d="m0 0h2l2 9v13l-2-4-2-3-5 3 1-6z" fill="#015737"/>
<path transform="translate(549,363)" d="m0 0h1l1 7 1 1 3-3-3 11-5 15-2 1 2-16z" fill="#01894F"/>
<path transform="translate(787,588)" d="m0 0h4v21h-4z" fill="#CBD2D5"/>
<path transform="translate(729,388)" d="m0 0 2 1-1 3h-3l-1 3-8 7-8 6-3-1 4-4h2l1-3 5-4 5-5z" fill="#019053"/>
<path transform="translate(417,598)" d="m0 0 1 2 2 1-2 2-2 5h-3l-1 3-6 3h-2l-1 2 1-4 12-13z" fill="#017847"/>
<path transform="translate(482,517)" d="m0 0 2 1-8 5-2 3h-2v2l-10 1-9 5h-5l3-2z" fill="#014B30"/>
<path transform="translate(693,455)" d="m0 0 14 3v2l-13 4h-3v-2l-2-1 4-4z" fill="#028F51"/>
<path transform="translate(388,470)" d="m0 0 4 1-1 7 2 1 1 3 3 1 4 4-10-3-4-5z" fill="#018F52"/>
<path transform="translate(453,392)" d="m0 0 2 1 1 17 2 10 1 2-4-2v-3l-2-6-1-16z" fill="#018E52"/>
<path transform="translate(550,355)" d="m0 0h1l1 5 3 2 2-4 1 4-3 6-4 4-1-2z" fill="#019858"/>
<path transform="translate(709,458)" d="m0 0 14 1 20 4v2l-27-4-7-2z" fill="#B6EAAB"/>
<path transform="translate(504,372)" d="m0 0 4 4 2-3 3 16v5l-1-2h-2l-5-16z" fill="#017B48"/>
<path transform="translate(584,539)" d="m0 0 17 2 6-1 2 2-9 2h-8l-10-2-1-2z" fill="#03B362"/>
<path transform="translate(507,355)" d="m0 0h1l1 21-2 1-6-12v-3h2l2 5 2 1z" fill="#018B50"/>
<path transform="translate(782,277)" d="m0 0v3l-7 13-2 1-2-5 2-2-1-2 9-7z" fill="#0CC060"/>
<path transform="translate(766,750)" d="m0 0v3l-7 7-9 11-3 1 2-4 9-11z" fill="#CED5D8"/>
<path transform="translate(679,454)" d="m0 0 2 1-1 2 8 2v2l-20-2 4-3z" fill="#018C51"/>
<path transform="translate(339,873)" d="m0 0h6l1 7-3 2-4-1z" fill="#001116"/>
<path transform="translate(447,382)" d="m0 0 2 2 1 6-1 3h-2l1 8h-3v-8l-1-4z" fill="#03A85B"/>
<path transform="translate(645,438)" d="m0 0m-1 1m-2 1h2v2l5 1-3 2-7 3h-6l3-4 4-1v-2z" fill="#015938"/>
<path transform="translate(531,509)" d="m0 0 2 3 4 12-1 2-3-1-2 1z" fill="#015E3B"/>
<path transform="translate(268,270)" d="m0 0 7 6v3l4 7v2h-2v-2l-3-1v-3h-2l-4-10z" fill="#01894F"/>
<path transform="translate(255,482)" d="m0 0 10 1 4 3-5 3-5-2-4-3z" fill="#015838"/>
<path transform="translate(527,509)" d="m0 0 1 3-1 11-3 1-1 2h-2l-1 2 1-5 5-13z" fill="#01402B"/>
<path transform="translate(527,512)" d="m0 0h1v13l-1 3-8 3v-3h2v-2h2l2-5h1z" fill="#015B39"/>
<path transform="translate(561,523)" d="m0 0 4 1 2 1v2l6 1 5 2 7 1v1h-11l-6-3-4-1-3-3z" fill="#018D51"/>
<path transform="translate(374,468)" d="m0 0h2v4h-3l-1 5 1 3 2 2-5-1-2-5 3-5h2z" fill="#04B463"/>
<path transform="translate(549,507)" d="m0 0 7 4v2l4 2 4 4-5-1-2-1v-2l-3 1-5-7z" fill="#016840"/>
<path transform="translate(673,472)" d="m0 0 2 1 2 7-5 5-7 1 1-2h3v-2l4-2z" fill="#04B463"/>
<path transform="translate(690,451)" d="m0 0 10 3 9 3v1h-7l-15-5z" fill="#ADE3A6"/>
<path transform="translate(617,349)" d="m0 0m-1 1m-2 1h2l-1 4-6 4h-5l1-3z" fill="#98F88F"/>
<path transform="translate(562,348)" d="m0 0h3l1 8-5 2-1 2h-2l3-9z" fill="#01623C"/>
<path transform="translate(755,592)" d="m0 0h5l1 1v5l-6 2z" fill="#000F15"/>
<path transform="translate(529,507)" d="m0 0 2 1v5l-1 1-2 23h-1v-12l1-16z" fill="#037D4A"/>
<path transform="translate(297,592)" d="m0 0h5l1 1v5l-1 1h-5z" fill="#031F1E"/>
<path transform="translate(535,621)" d="m0 0 1 2-5 11h-1v-12z" fill="#01673F"/>
<path transform="translate(504,505)" d="m0 0 2 1-5 4-14 7-3-1 15-8z" fill="#013F2A"/>
<path transform="translate(349,299)" d="m0 0 16 6-1 2-9-2-6-3z" fill="#B3E6A9"/>
<path transform="translate(279,295)" d="m0 0 5 1 1 4-2 4-2 2-3-7z" fill="#017846"/>
<path transform="translate(508,503)" d="m0 0h5l-1 3-9 5-3-1 5-4z" fill="#015938"/>
<path transform="translate(611,380)" d="m0 0 3 3 3 9-5-2-2-9z" fill="#04B362"/>
<path transform="translate(547,379)" d="m0 0 3 3-2 9-2 4-1-4z" fill="#017A47"/>
<path transform="translate(394,319)" d="m0 0 5 1 10 6 2 3-5-2-12-6z" fill="#B3E9A7"/>
<path transform="translate(474,306)" d="m0 0 3 1 4 8-1 2-4-1-2-5v-4z" fill="#01653E"/>
<path transform="translate(520,155)" d="m0 0h3l-2 5h-2l-2 6-3 3 1-5 3-8z" fill="#B7EEAA"/>
<path transform="translate(705,736)" d="m0 0 1 4-4 11-4 2 2-5z" fill="#C9D1D4"/>
<path transform="translate(477,533)" d="m0 0h2l-1 3-16 3h-6l4-2 15-3z" fill="#019053"/>
<path transform="translate(324,715)" d="m0 0 1 4-1 13-2-1v-13z" fill="#D0D7DA"/>
<path transform="translate(426,548)" d="m0 0 8 1-4 3-9 3v-2z" fill="#01844C"/>
<path transform="translate(663,483)" d="m0 0m-1 1m-3 1 5 1v2l-4 1h-14v-1l10-1z" fill="#16BD5E"/>
<path transform="translate(275,472)" d="m0 0 3 1-1 2-11 3h-4v-2z" fill="#B3E5A9"/>
<path transform="translate(447,402)" d="m0 0h2l2 7-2 3-3-1-1-4z" fill="#03A75B"/>
<path transform="translate(637,335)" d="m0 0 1 2-8 7-4 2 1-4z" fill="#A8F99C"/>
<path transform="translate(357,418)" d="m0 0 4 1 2 4 4 3-10-1 1-4z" fill="#018B51"/>
<path transform="translate(314,516)" d="m0 0h5l4 3 1 4-5-2-5-3z" fill="#015234"/>
<path transform="translate(712,297)" d="m0 0 3 1-1 2-8 3-4-1 3-2z" fill="#B1E3A7"/>
<path transform="translate(757,760)" d="m0 0v3l-7 8-3 1 2-4 4-5z" fill="#D4DCDF"/>
<path transform="translate(698,457)" d="m0 0 9 1v2l-9 2-1-4z" fill="#02894E"/>
<path transform="translate(684,452)" d="m0 0 4 1 2 3-5 1-4-1v-3z" fill="#029855"/>
<path transform="translate(445,401)" d="m0 0h2v6 3l-4-2-1-5z" fill="#03B162"/>
<path transform="translate(457,563)" d="m0 0 1 2h-2l-2 4-5 5-2-1 8-9z" fill="#01633D"/>
<path transform="translate(434,349)" d="m0 0 5 2 8 5-3 1h-3v-2h-2z" fill="#01864E"/>
<path transform="translate(762,503)" d="m0 0 3 1v2l-8 4v-3z" fill="#015134"/>
<path transform="translate(704,330)" d="m0 0 3 1-2 4-5 1 1-4z" fill="#ACF99F"/>
</svg>
